<mxfile host="app.diagrams.net" modified="2023-05-17T02:06:07.413Z" agent="Mozilla/5.0 (Windows NT 10.0; Win64; x64; rv:109.0) Gecko/20100101 Firefox/113.0" etag="PZ9lil5LMqul8yv1dTHx" version="21.3.0" type="github">
  <diagram id="C5RBs43oDa-KdzZeNtuy" name="Page-1">
    <mxGraphModel dx="925" dy="499" grid="1" gridSize="10" guides="1" tooltips="1" connect="1" arrows="1" fold="1" page="1" pageScale="1" pageWidth="827" pageHeight="1169" math="0" shadow="0">
      <root>
        <mxCell id="WIyWlLk6GJQsqaUBKTNV-0" />
        <mxCell id="WIyWlLk6GJQsqaUBKTNV-1" parent="WIyWlLk6GJQsqaUBKTNV-0" />
        <mxCell id="WIyWlLk6GJQsqaUBKTNV-2" value="" style="rounded=0;html=1;jettySize=auto;orthogonalLoop=1;fontSize=11;endArrow=classic;endFill=1;endSize=8;strokeWidth=1;shadow=0;labelBackgroundColor=default;edgeStyle=orthogonalEdgeStyle;startFill=0;" parent="WIyWlLk6GJQsqaUBKTNV-1" edge="1">
          <mxGeometry relative="1" as="geometry">
            <mxPoint x="210" y="190" as="sourcePoint" />
            <mxPoint x="209.9999999999999" y="240" as="targetPoint" />
          </mxGeometry>
        </mxCell>
        <mxCell id="WIyWlLk6GJQsqaUBKTNV-4" value="" style="rounded=0;html=1;jettySize=auto;orthogonalLoop=1;fontSize=11;endArrow=classic;endFill=1;endSize=8;strokeWidth=1;shadow=0;labelBackgroundColor=default;edgeStyle=orthogonalEdgeStyle;startFill=0;" parent="WIyWlLk6GJQsqaUBKTNV-1" edge="1">
          <mxGeometry y="20" relative="1" as="geometry">
            <mxPoint as="offset" />
            <mxPoint x="210" y="320" as="sourcePoint" />
            <mxPoint x="209.9999999999999" y="360.0000000000001" as="targetPoint" />
          </mxGeometry>
        </mxCell>
        <mxCell id="7-ifbfS82pvWHVfPcbau-23" style="edgeStyle=orthogonalEdgeStyle;shape=connector;rounded=0;orthogonalLoop=1;jettySize=auto;html=1;entryX=0.5;entryY=0;entryDx=0;entryDy=0;labelBackgroundColor=default;strokeColor=default;fontFamily=Helvetica;fontSize=11;fontColor=default;startFill=0;endArrow=classic;" edge="1" parent="WIyWlLk6GJQsqaUBKTNV-1" source="7-ifbfS82pvWHVfPcbau-0" target="7-ifbfS82pvWHVfPcbau-3">
          <mxGeometry relative="1" as="geometry" />
        </mxCell>
        <mxCell id="7-ifbfS82pvWHVfPcbau-0" value="Beginning" style="ellipse;whiteSpace=wrap;html=1;" vertex="1" parent="WIyWlLk6GJQsqaUBKTNV-1">
          <mxGeometry x="162" y="50" width="96" height="50" as="geometry" />
        </mxCell>
        <mxCell id="7-ifbfS82pvWHVfPcbau-3" value="Take a UsersList in to OnLogin method. " style="rounded=0;whiteSpace=wrap;html=1;" vertex="1" parent="WIyWlLk6GJQsqaUBKTNV-1">
          <mxGeometry x="110" y="140" width="200" height="60" as="geometry" />
        </mxCell>
        <mxCell id="7-ifbfS82pvWHVfPcbau-4" value="End" style="ellipse;whiteSpace=wrap;html=1;" vertex="1" parent="WIyWlLk6GJQsqaUBKTNV-1">
          <mxGeometry x="162" y="740" width="96" height="50" as="geometry" />
        </mxCell>
        <mxCell id="7-ifbfS82pvWHVfPcbau-7" style="edgeStyle=orthogonalEdgeStyle;rounded=0;orthogonalLoop=1;jettySize=auto;html=1;entryX=0.5;entryY=0;entryDx=0;entryDy=0;" edge="1" parent="WIyWlLk6GJQsqaUBKTNV-1" source="7-ifbfS82pvWHVfPcbau-5" target="7-ifbfS82pvWHVfPcbau-4">
          <mxGeometry relative="1" as="geometry">
            <mxPoint x="510" y="580" as="targetPoint" />
            <Array as="points">
              <mxPoint x="390" y="280" />
              <mxPoint x="390" y="710" />
              <mxPoint x="210" y="710" />
            </Array>
          </mxGeometry>
        </mxCell>
        <mxCell id="7-ifbfS82pvWHVfPcbau-5" value="int i = 0; i &amp;lt; UserList.Count ; i++" style="shape=hexagon;perimeter=hexagonPerimeter2;whiteSpace=wrap;html=1;fixedSize=1;" vertex="1" parent="WIyWlLk6GJQsqaUBKTNV-1">
          <mxGeometry x="110" y="240" width="200" height="80" as="geometry" />
        </mxCell>
        <mxCell id="7-ifbfS82pvWHVfPcbau-13" value="" style="edgeStyle=orthogonalEdgeStyle;rounded=0;orthogonalLoop=1;jettySize=auto;html=1;startFill=0;" edge="1" parent="WIyWlLk6GJQsqaUBKTNV-1" source="7-ifbfS82pvWHVfPcbau-11" target="7-ifbfS82pvWHVfPcbau-12">
          <mxGeometry relative="1" as="geometry" />
        </mxCell>
        <mxCell id="7-ifbfS82pvWHVfPcbau-11" value="&lt;div&gt;Show welcome message&lt;/div&gt;&lt;div&gt;for the UserList.ElementAt(i)&lt;/div&gt;" style="shape=parallelogram;perimeter=parallelogramPerimeter;whiteSpace=wrap;html=1;fixedSize=1;" vertex="1" parent="WIyWlLk6GJQsqaUBKTNV-1">
          <mxGeometry x="110" y="360" width="200" height="60" as="geometry" />
        </mxCell>
        <mxCell id="7-ifbfS82pvWHVfPcbau-12" value="&lt;div&gt;UserList.ElementAt(i).&lt;/div&gt;&lt;div&gt;IsPremium?&lt;/div&gt;" style="rhombus;whiteSpace=wrap;html=1;" vertex="1" parent="WIyWlLk6GJQsqaUBKTNV-1">
          <mxGeometry x="110" y="460" width="200" height="80" as="geometry" />
        </mxCell>
        <mxCell id="7-ifbfS82pvWHVfPcbau-17" value="" style="endArrow=classic;html=1;rounded=0;labelBackgroundColor=default;strokeColor=default;fontFamily=Helvetica;fontSize=11;fontColor=default;shape=connector;exitX=0.5;exitY=1;exitDx=0;exitDy=0;" edge="1" parent="WIyWlLk6GJQsqaUBKTNV-1" source="7-ifbfS82pvWHVfPcbau-12">
          <mxGeometry relative="1" as="geometry">
            <mxPoint x="180" y="390" as="sourcePoint" />
            <mxPoint x="210" y="580" as="targetPoint" />
          </mxGeometry>
        </mxCell>
        <mxCell id="7-ifbfS82pvWHVfPcbau-18" value="No" style="edgeLabel;resizable=0;html=1;align=center;verticalAlign=middle;fontFamily=Helvetica;fontSize=11;fontColor=default;" connectable="0" vertex="1" parent="7-ifbfS82pvWHVfPcbau-17">
          <mxGeometry relative="1" as="geometry">
            <mxPoint x="10" y="-10" as="offset" />
          </mxGeometry>
        </mxCell>
        <mxCell id="7-ifbfS82pvWHVfPcbau-19" value="" style="endArrow=classic;html=1;rounded=0;labelBackgroundColor=default;strokeColor=default;fontFamily=Helvetica;fontSize=11;fontColor=default;shape=connector;exitX=0;exitY=0.5;exitDx=0;exitDy=0;entryX=0;entryY=0.5;entryDx=0;entryDy=0;" edge="1" parent="WIyWlLk6GJQsqaUBKTNV-1" source="7-ifbfS82pvWHVfPcbau-12" target="7-ifbfS82pvWHVfPcbau-5">
          <mxGeometry relative="1" as="geometry">
            <mxPoint x="180" y="420" as="sourcePoint" />
            <mxPoint x="50" y="500" as="targetPoint" />
            <Array as="points">
              <mxPoint x="30" y="500" />
              <mxPoint x="30" y="390" />
              <mxPoint x="30" y="280" />
            </Array>
          </mxGeometry>
        </mxCell>
        <mxCell id="7-ifbfS82pvWHVfPcbau-20" value="Yes" style="edgeLabel;resizable=0;html=1;align=center;verticalAlign=middle;fontFamily=Helvetica;fontSize=11;fontColor=default;" connectable="0" vertex="1" parent="7-ifbfS82pvWHVfPcbau-19">
          <mxGeometry relative="1" as="geometry">
            <mxPoint x="50" y="100" as="offset" />
          </mxGeometry>
        </mxCell>
        <mxCell id="7-ifbfS82pvWHVfPcbau-22" style="edgeStyle=orthogonalEdgeStyle;shape=connector;rounded=0;orthogonalLoop=1;jettySize=auto;html=1;labelBackgroundColor=default;strokeColor=default;fontFamily=Helvetica;fontSize=11;fontColor=default;startFill=0;endArrow=classic;entryX=0;entryY=0.5;entryDx=0;entryDy=0;" edge="1" parent="WIyWlLk6GJQsqaUBKTNV-1" source="7-ifbfS82pvWHVfPcbau-21" target="7-ifbfS82pvWHVfPcbau-5">
          <mxGeometry relative="1" as="geometry">
            <mxPoint x="30" y="500" as="targetPoint" />
            <Array as="points">
              <mxPoint x="210" y="680" />
              <mxPoint x="30" y="680" />
              <mxPoint x="30" y="280" />
            </Array>
          </mxGeometry>
        </mxCell>
        <mxCell id="7-ifbfS82pvWHVfPcbau-21" value="&lt;div&gt;Show ads&lt;/div&gt;&lt;div&gt;for the UserList.ElementAt(i)&lt;/div&gt;" style="shape=parallelogram;perimeter=parallelogramPerimeter;whiteSpace=wrap;html=1;fixedSize=1;" vertex="1" parent="WIyWlLk6GJQsqaUBKTNV-1">
          <mxGeometry x="110" y="580" width="200" height="60" as="geometry" />
        </mxCell>
      </root>
    </mxGraphModel>
  </diagram>
</mxfile>
